<?xml version="1.0" encoding="utf-8"?>
<!-- Generator: Adobe Illustrator 21.0.2, SVG Export Plug-In . SVG Version: 6.00 Build 0)  -->
<svg version="1.1" id="Calque_1" xmlns="http://www.w3.org/2000/svg" xmlns:xlink="http://www.w3.org/1999/xlink" x="0px" y="0px"
	 viewBox="0 0 763.1 105.9" style="enable-background:new 0 0 763.1 105.9;" xml:space="preserve">
<style type="text/css">
	.st0{fill:#FFFFFF;}
</style>
<path class="st0" d="M217.4,84.7l0.1-64.7h16.3v64.6C228.5,84.7,223.3,84.7,217.4,84.7 M215.5,54.8c-1.5,16.1-13.3,27.8-27.8,30.1
	c-3.8,0.6-7.9,0.2-11.8,0.2c-5.2,0-10.3-0.1-15.5-0.1h-9.1c-2.2-2.9-4.4-5.8-6.7-9h-21.9c-0.3,2.9-0.5,5.7-0.8,8.7h-17.2
	c-6.8-11.3-21.1-34.2-21.4-34.2v38.7c-7.9-12.6-16.9-25.8-25.7-39.3v34.7H40.8V19.9h15.7c3.5,5.4,7,10.7,11.1,17.1V20.1h14.6
	c7.6,11,22.3,31.8,23.7,33.6V20h15.8c7.8,9.8,15.9,19.8,24.3,30.3c1.5-20.5,16.7-31,30.9-32.3c3.9-0.4,6.1-0.4,8.9,0.1
	c12.7,2.2,22,8.7,27.2,20.7c0.3,0.6,0.3,1.3,0.4,2.2h-18.8c-0.2-0.3-0.7-0.8-1.1-1.3c-5.3-6.4-11.6-8.2-19.1-5.6
	c-6.8,2.4-11.2,9.5-11.2,16.7c0,4.8,1.1,9.1,3.8,13.1c6.4,9.2,23.6,8.6,27.9-1.2c0.1-0.3,0.3-0.9,0.4-1.5h-11.7V47.4h32.3
	C215.9,51.7,215.7,53,215.5,54.8L215.5,54.8z M134.1,61.6c-4.2-5.8-7.7-11.3-12.2-16.9v16.9H134.1z M743.4,73.4
	c-3.3,8.4-10,12.2-18.6,12.6c-4.8,0.2-9.7,0-14.3-0.9c-9-1.7-16.4-10.3-14.8-21.2h16.7c1.2,5.5,3.1,9.7,11,8.3
	c1.7-0.3,2.2-1.5,2.9-2.9c0.9-3.2,1.2-5,0-5.9c-2.4-1.9-5-3-7.8-4.3c-3.9-1.8-8-3.1-11.8-5.1c-6-3.2-10.3-7.7-10.5-15.1
	c-0.2-6,2.2-10.7,6.9-14.2c11.6-8.8,28.6-6.7,37.9,3.5c-4.7,3.6-9.4,7.2-14.3,11c-0.9-1.7-1.5-3.2-2.5-4.4c-1.7-2-4.1-1.9-6.5-1.2
	c-2.2,0.6-3.4,2.1-3.7,4.3c-0.3,2.3,1,3.9,2.9,4.8c3.1,1.6,6.3,3,9.4,4.4c2.4,1.1,4.9,2.1,7.2,3.3c5.2,2.8,9.2,6.7,11,12.6
	C745.4,68.4,744.1,70.9,743.4,73.4L743.4,73.4z M19.5,20v64.6h16.6V20H19.5z M501.9,46.7c5-27.2,35.4-35,54.4-22.2
	c4.4,3,7.6,6.6,12,13.9c6.6-12.2,16.5-19.4,30.4-19.8c9.9-0.3,18.7,2.7,25.8,9.8c13.9,14,13.3,36.1-1.5,49.2
	c-8.6,7.6-18.9,9.9-30.2,7.7c-11.2-2.1-19-8.8-24.4-18.9c-8.9,15.3-21.8,22.1-38.6,19.1c-15.5-2.7-24.6-12.7-27.7-28.1
	c-0.3-2.4-0.3-4-0.3-5.9C501.7,49.8,501.7,48.4,501.9,46.7z M599.9,71.1c9.8,0.1,17.5-7.9,17.7-18.2c0.2-10.9-7.6-19.6-17.5-19.6
	c-9.5,0-17.3,8.3-17.5,18.6C582.3,62.4,590.1,71,599.9,71.1z M550.8,41.9c-7.3-8.6-14-10.5-21.8-6.9c-7.4,3.5-11.8,12-10.3,20.2
	c1.6,9.1,7.5,15.1,15.4,15.8c8.8,0.8,14.4-2.4,17.1-10.1h-13.5V47.5h28.4c0.3-2.1,0.5-3.7,0.8-5.6H550.8z M500.1,57.3v27.5h-15.5
	c-0.2-2.9-0.4-5.8-0.6-9h-22.2c-2.2,2.9-4.5,5.9-7,9h-18.9c-4.8-8.4-14.4-25.4-15.7-26.9v26.8h-17.4V19.8h6.8c8,0.1,16-0.2,24,0.3
	c9.9,0.6,16.5,4.9,19.8,14.1c3.5,9.7,1,21.2-9.7,26.3c-1,0.5-2,1.1-3.1,1.8c1.1,1.8,2.1,3.5,3.2,5.2c0.7,1.1,1.6,2.1,2.8,3.6
	C459.4,54,472,37.2,484.7,20.2h15.5v26.6C500.1,50.2,500.1,53.8,500.1,57.3L500.1,57.3z M420.3,52.1h4.8c1.5,0,3,0.1,4.5-0.2
	c4.2-0.6,7.5-3.9,7.9-7.8c0.4-3.6-1.8-7.1-5.4-8.6s-6.8-1.9-11.7-0.7C420.3,40.5,420.3,45.9,420.3,52.1L420.3,52.1z M484.5,45.6
	c-0.3-0.1-0.6-0.2-0.9-0.4c-3.8,5.3-7.5,10.6-11.7,16.5h12.6V45.6z M254.2,84.7h-16.4V20h14.4c7.6,8,15.5,16.3,24.1,25.3V20h16.2
	v68.7c-12.9-13.4-37-38.5-38.4-39.8C254.2,50.1,254.2,73.1,254.2,84.7L254.2,84.7z M333.2,69.8v14.8H297V20.1h36v14.1h-19.7v9.7
	h14.4c-2.1,5.4-3.9,10-5.8,15.1h-8.7v10.8H333.2L333.2,69.8z M350.1,84.6V69.9h14.8c14.6,0,18.5-9.7,17.4-20.8
	c-0.3-3.3-2-6.7-3.8-9.5c-3-4.7-8.2-5.1-13.3-5.3c-4.9-0.1-9.9,0-15.2,0V20.2c1.1-0.2,2.2-0.5,3.3-0.5c5.8,0,11.6,0,17.5,0.2
	c18,0.5,27.4,14,28.5,28.1c0.4,5-0.1,10.4-1.3,15.3c-3,11.8-11,18.8-22.9,20.5C367.1,85,359.1,84.6,350.1,84.6z"/>
<path class="st0" d="M652.2,84.7h-16.4V20h14.4c7.6,8,15.5,16.3,24.1,25.3V20h16.2v68.7c-12.9-13.4-37-38.5-38.4-39.8
	C652.2,50.1,652.2,73,652.2,84.7L652.2,84.7z"/>
</svg>
